<svg xmlns="http://www.w3.org/2000/svg" xmlns:xlink="http://www.w3.org/1999/xlink" width="500" zoomAndPan="magnify" viewBox="0 0 375 374.999991" height="500" preserveAspectRatio="xMidYMid meet" version="1.0"><defs><g/><clipPath id="4ba93a5bf0"><rect x="0" width="92" y="0" height="128"/></clipPath><clipPath id="00b037a1a2"><rect x="0" width="77" y="0" height="129"/></clipPath><clipPath id="9c74e9ce87"><rect x="0" width="77" y="0" height="29"/></clipPath></defs><g transform="matrix(1, 0, 0, 1, 130, 100)"><g clip-path="url(#4ba93a5bf0)"><g fill="#000000" fill-opacity="1"><g transform="translate(0.894083, 92.102586)"><g><path d="M 14.765625 0 L 7.203125 0 L 7.203125 -90.03125 L 14.578125 -90.03125 L 44.296875 -34.390625 C 44.953125 -33.191406 45.640625 -32.59375 46.359375 -32.59375 C 47.085938 -32.59375 47.75 -33.222656 48.34375 -34.484375 L 74.359375 -90.03125 L 82.65625 -90.03125 L 82.65625 0 L 75.09375 0 L 75.09375 -80.21875 C 75.09375 -81.84375 74.726562 -82.65625 74 -82.65625 C 73.519531 -82.65625 73.007812 -82.171875 72.46875 -81.203125 C 72.289062 -80.847656 71.75 -79.722656 70.84375 -77.828125 C 69.945312 -75.941406 68.804688 -73.523438 67.421875 -70.578125 C 66.046875 -67.640625 64.53125 -64.398438 62.875 -60.859375 C 61.226562 -57.316406 59.535156 -53.695312 57.796875 -50 C 56.054688 -46.3125 54.375 -42.742188 52.75 -39.296875 C 51.132812 -35.847656 49.679688 -32.742188 48.390625 -29.984375 C 47.097656 -27.222656 46.078125 -25.03125 45.328125 -23.40625 C 44.578125 -21.789062 44.203125 -20.984375 44.203125 -20.984375 C 44.203125 -20.984375 43.765625 -21.789062 42.890625 -23.40625 C 42.023438 -25.03125 40.859375 -27.238281 39.390625 -30.03125 C 37.921875 -32.820312 36.253906 -35.957031 34.390625 -39.4375 C 32.523438 -42.914062 30.585938 -46.515625 28.578125 -50.234375 C 26.566406 -53.953125 24.613281 -57.597656 22.71875 -61.171875 C 20.832031 -64.742188 19.109375 -67.984375 17.546875 -70.890625 C 15.992188 -73.804688 14.722656 -76.179688 13.734375 -78.015625 C 12.742188 -79.847656 12.15625 -80.910156 11.96875 -81.203125 C 11.425781 -82.171875 10.890625 -82.65625 10.359375 -82.65625 C 9.578125 -82.65625 9.242188 -81.84375 9.359375 -80.21875 Z M 14.765625 0 "/></g></g></g></g></g><g transform="matrix(1, 0, 0, 1, 198, 148)"><g clip-path="url(#00b037a1a2)"><g fill="#000000" fill-opacity="1"><g transform="translate(1.025309, 92.686543)"><g><path d="M 7.203125 0 L 7.203125 -90.03125 L 69.59375 -90.03125 L 69.59375 -82.015625 C 67.726562 -82.617188 65.328125 -83.21875 62.390625 -83.8125 C 59.453125 -84.414062 56.179688 -84.988281 52.578125 -85.53125 C 48.972656 -86.070312 45.203125 -86.535156 41.265625 -86.921875 C 37.335938 -87.316406 33.484375 -87.632812 29.703125 -87.875 C 25.921875 -88.113281 22.382812 -88.234375 19.09375 -88.234375 C 17.46875 -88.234375 16.265625 -87.828125 15.484375 -87.015625 C 14.703125 -86.203125 14.3125 -84.566406 14.3125 -82.109375 L 14.3125 -53.65625 C 14.3125 -52.332031 14.726562 -51.25 15.5625 -50.40625 C 16.40625 -49.570312 17.488281 -49.15625 18.8125 -49.15625 L 60.765625 -49.15625 L 60.765625 -41.59375 C 58.128906 -42.25 54.945312 -42.890625 51.21875 -43.515625 C 47.5 -44.148438 43.628906 -44.738281 39.609375 -45.28125 C 35.585938 -45.820312 31.757812 -46.242188 28.125 -46.546875 C 24.5 -46.847656 21.425781 -47 18.90625 -47 C 17.582031 -47 16.5 -46.679688 15.65625 -46.046875 C 14.820312 -45.421875 14.40625 -44.414062 14.40625 -43.03125 L 14.3125 -7.921875 C 14.3125 -5.523438 14.703125 -3.90625 15.484375 -3.0625 C 16.265625 -2.21875 17.46875 -1.796875 19.09375 -1.796875 C 22.382812 -1.796875 25.921875 -1.914062 29.703125 -2.15625 C 33.484375 -2.394531 37.335938 -2.707031 41.265625 -3.09375 C 45.203125 -3.488281 48.972656 -3.957031 52.578125 -4.5 C 56.179688 -5.039062 59.453125 -5.609375 62.390625 -6.203125 C 65.328125 -6.804688 67.726562 -7.410156 69.59375 -8.015625 L 69.59375 0 Z M 7.203125 0 "/></g></g></g></g></g><g transform="matrix(1, 0, 0, 1, 110, 201)"><g clip-path="url(#9c74e9ce87)"><g fill="#000000" fill-opacity="1"><g transform="translate(0.872733, 12.960941)"><g><path d="M 1.1875 -6.875 L 0.359375 -7.0625 L 0.484375 -7.734375 L 3.59375 -7.734375 L 5.71875 -2.125 L 5.8125 -2.125 L 7.84375 -7.734375 L 11.03125 -7.734375 L 11.140625 -7.0625 L 10.328125 -6.875 L 10.328125 -0.875 L 11.140625 -0.671875 L 11.03125 0 L 7.90625 0 L 7.796875 -0.671875 L 8.609375 -0.875 L 8.609375 -6.5 L 8.515625 -6.5 L 6.09375 0 L 4.921875 0 L 2.421875 -6.5 L 2.328125 -6.5 L 2.328125 -0.875 L 3.140625 -0.671875 L 3.03125 0 L 0.484375 0 L 0.359375 -0.671875 L 1.1875 -0.875 Z M 1.1875 -6.875 "/></g></g></g><g fill="#000000" fill-opacity="1"><g transform="translate(15.453549, 12.960941)"><g><path d="M 2.546875 -3.125 C 2.546875 -2.332031 2.691406 -1.734375 2.984375 -1.328125 C 3.285156 -0.929688 3.71875 -0.734375 4.28125 -0.734375 C 4.550781 -0.734375 4.804688 -0.765625 5.046875 -0.828125 C 5.296875 -0.890625 5.492188 -0.960938 5.640625 -1.046875 C 5.765625 -1.285156 5.867188 -1.570312 5.953125 -1.90625 C 6.035156 -2.25 6.078125 -2.609375 6.078125 -2.984375 L 6.078125 -6.875 L 5.265625 -7.0625 L 5.375 -7.734375 L 7.875 -7.734375 L 7.984375 -7.0625 L 7.171875 -6.875 L 7.171875 -3.109375 C 7.171875 -2.015625 6.910156 -1.203125 6.390625 -0.671875 C 5.878906 -0.140625 5.082031 0.125 4 0.125 C 2.90625 0.125 2.101562 -0.117188 1.59375 -0.609375 C 1.082031 -1.097656 0.828125 -1.832031 0.828125 -2.8125 L 0.828125 -6.875 L 0 -7.0625 L 0.109375 -7.734375 L 3.234375 -7.734375 L 3.359375 -7.0625 L 2.546875 -6.875 Z M 2.546875 -3.125 "/></g></g></g><g fill="#000000" fill-opacity="1"><g transform="translate(26.540534, 12.960941)"><g><path d="M 3.796875 -4.65625 C 4.679688 -4.15625 5.289062 -3.71875 5.625 -3.34375 C 5.957031 -2.96875 6.125 -2.507812 6.125 -1.96875 C 6.125 -1.300781 5.84375 -0.785156 5.28125 -0.421875 C 4.726562 -0.0546875 3.96875 0.125 3 0.125 C 2.5625 0.125 2.132812 0.09375 1.71875 0.03125 C 1.3125 -0.03125 0.96875 -0.117188 0.6875 -0.234375 L 0.5625 -1.828125 L 1.515625 -1.96875 L 2 -0.84375 C 2.15625 -0.8125 2.328125 -0.785156 2.515625 -0.765625 C 2.703125 -0.742188 2.894531 -0.734375 3.09375 -0.734375 C 3.289062 -0.734375 3.488281 -0.742188 3.6875 -0.765625 C 3.894531 -0.796875 4.078125 -0.835938 4.234375 -0.890625 C 4.273438 -0.984375 4.3125 -1.097656 4.34375 -1.234375 C 4.382812 -1.367188 4.40625 -1.503906 4.40625 -1.640625 C 4.40625 -1.941406 4.285156 -2.207031 4.046875 -2.4375 C 3.804688 -2.664062 3.367188 -2.972656 2.734375 -3.359375 C 1.753906 -3.910156 1.128906 -4.359375 0.859375 -4.703125 C 0.585938 -5.046875 0.453125 -5.453125 0.453125 -5.921875 C 0.453125 -6.535156 0.722656 -7.015625 1.265625 -7.359375 C 1.804688 -7.703125 2.550781 -7.875 3.5 -7.875 C 3.882812 -7.875 4.257812 -7.84375 4.625 -7.78125 C 5 -7.726562 5.332031 -7.65625 5.625 -7.5625 L 5.75 -5.90625 L 4.859375 -5.78125 L 4.390625 -6.90625 C 4.234375 -6.945312 4.070312 -6.972656 3.90625 -6.984375 C 3.738281 -7.003906 3.570312 -7.015625 3.40625 -7.015625 C 3.21875 -7.015625 3.023438 -7 2.828125 -6.96875 C 2.640625 -6.945312 2.457031 -6.910156 2.28125 -6.859375 C 2.25 -6.753906 2.222656 -6.640625 2.203125 -6.515625 C 2.179688 -6.398438 2.171875 -6.285156 2.171875 -6.171875 C 2.171875 -5.929688 2.265625 -5.722656 2.453125 -5.546875 C 2.640625 -5.367188 3.085938 -5.070312 3.796875 -4.65625 Z M 3.796875 -4.65625 "/></g></g></g><g fill="#000000" fill-opacity="1"><g transform="translate(36.083599, 12.960941)"><g><path d="M 2.59375 -6.890625 L 1.25 -6.890625 L 0.890625 -5.921875 L 0.046875 -5.96875 L 0.125 -7.734375 L 6.78125 -7.734375 L 6.859375 -5.96875 L 6.015625 -5.921875 L 5.65625 -6.890625 L 4.3125 -6.890625 L 4.3125 -0.875 L 5.125 -0.671875 L 5.015625 0 L 1.890625 0 L 1.78125 -0.671875 L 2.59375 -0.875 Z M 2.59375 -6.890625 "/></g></g></g><g fill="#000000" fill-opacity="1"><g transform="translate(46.066967, 12.960941)"><g><path d="M -0.15625 -0.671875 L 0.421875 -0.828125 L 2.90625 -7.734375 L 4.40625 -7.734375 L 6.828125 -0.828125 L 7.390625 -0.671875 L 7.28125 0 L 4.453125 0 L 4.34375 -0.671875 L 5.09375 -0.828125 L 4.625 -2.203125 L 2.03125 -2.203125 L 1.546875 -0.828125 L 2.3125 -0.671875 L 2.1875 0 L -0.03125 0 Z M 2.328125 -3.0625 L 4.34375 -3.0625 L 3.390625 -5.859375 L 3.296875 -5.859375 Z M 2.328125 -3.0625 "/></g></g></g><g fill="#000000" fill-opacity="1"><g transform="translate(56.38771, 12.960941)"><g><path d="M 2.921875 -3.625 L 2.921875 -0.875 L 4.078125 -0.671875 L 3.96875 0 L 0.5 0 L 0.390625 -0.671875 L 1.203125 -0.875 L 1.203125 -6.875 L 0.390625 -7.0625 L 0.5 -7.734375 L 5.8125 -7.734375 L 5.9375 -5.90625 L 5.234375 -5.78125 L 4.765625 -6.890625 L 2.921875 -6.890625 L 2.921875 -4.46875 L 4.359375 -4.46875 L 4.546875 -5.109375 L 5.21875 -5 L 5.21875 -3.09375 L 4.546875 -2.96875 L 4.359375 -3.625 Z M 2.921875 -3.625 "/></g></g></g><g fill="#000000" fill-opacity="1"><g transform="translate(65.662019, 12.960941)"><g><path d="M -0.15625 -0.671875 L 0.421875 -0.828125 L 2.90625 -7.734375 L 4.40625 -7.734375 L 6.828125 -0.828125 L 7.390625 -0.671875 L 7.28125 0 L 4.453125 0 L 4.34375 -0.671875 L 5.09375 -0.828125 L 4.625 -2.203125 L 2.03125 -2.203125 L 1.546875 -0.828125 L 2.3125 -0.671875 L 2.1875 0 L -0.03125 0 Z M 2.328125 -3.0625 L 4.34375 -3.0625 L 3.390625 -5.859375 L 3.296875 -5.859375 Z M 2.328125 -3.0625 "/></g></g></g><g fill="#000000" fill-opacity="1"><g transform="translate(13.752252, 24.099985)"><g><path d="M 2.9375 -3.625 L 2.9375 -0.859375 L 5.234375 -0.859375 L 5.703125 -1.953125 L 6.46875 -1.828125 L 6.328125 0 L 0.515625 0 L 0.40625 -0.671875 L 1.21875 -0.875 L 1.21875 -6.875 L 0.40625 -7.0625 L 0.515625 -7.734375 L 6.15625 -7.734375 L 6.296875 -5.90625 L 5.53125 -5.78125 L 5.0625 -6.890625 L 2.9375 -6.890625 L 2.9375 -4.46875 L 4.578125 -4.46875 L 4.765625 -5.109375 L 5.453125 -5 L 5.453125 -3.09375 L 4.765625 -2.96875 L 4.578125 -3.625 Z M 2.9375 -3.625 "/></g></g></g><g fill="#000000" fill-opacity="1"><g transform="translate(23.712747, 24.099985)"><g><path d="M 1.203125 -6.875 L 0.390625 -7.0625 L 0.5 -7.734375 L 3.625 -7.734375 L 3.734375 -7.0625 L 2.921875 -6.875 L 2.921875 -0.859375 L 4.453125 -0.859375 L 4.921875 -1.953125 L 5.796875 -1.828125 L 5.65625 0 L 0.5 0 L 0.390625 -0.671875 L 1.203125 -0.875 Z M 1.203125 -6.875 "/></g></g></g><g fill="#000000" fill-opacity="1"><g transform="translate(32.889846, 24.099985)"><g><path d="M 1.21875 -6.875 L 0.40625 -7.0625 L 0.515625 -7.734375 L 3.765625 -7.734375 C 4.578125 -7.734375 5.207031 -7.582031 5.65625 -7.28125 C 6.113281 -6.976562 6.34375 -6.535156 6.34375 -5.953125 C 6.34375 -5.566406 6.222656 -5.210938 5.984375 -4.890625 C 5.742188 -4.566406 5.414062 -4.3125 5 -4.125 L 5.015625 -4.03125 C 5.523438 -3.9375 5.929688 -3.738281 6.234375 -3.4375 C 6.535156 -3.144531 6.6875 -2.769531 6.6875 -2.3125 C 6.6875 -1.613281 6.4375 -1.050781 5.9375 -0.625 C 5.445312 -0.207031 4.796875 0 3.984375 0 L 0.515625 0 L 0.40625 -0.671875 L 1.21875 -0.875 Z M 2.9375 -3.59375 L 2.9375 -0.859375 L 3.4375 -0.859375 C 3.664062 -0.859375 3.894531 -0.863281 4.125 -0.875 C 4.351562 -0.894531 4.578125 -0.9375 4.796875 -1 C 4.847656 -1.15625 4.890625 -1.34375 4.921875 -1.5625 C 4.953125 -1.789062 4.96875 -2.019531 4.96875 -2.25 C 4.96875 -2.675781 4.835938 -3.003906 4.578125 -3.234375 C 4.316406 -3.472656 3.96875 -3.59375 3.53125 -3.59375 Z M 2.9375 -6.890625 L 2.9375 -4.453125 L 3.40625 -4.453125 C 3.570312 -4.453125 3.742188 -4.460938 3.921875 -4.484375 C 4.097656 -4.515625 4.269531 -4.550781 4.4375 -4.59375 C 4.488281 -4.738281 4.535156 -4.914062 4.578125 -5.125 C 4.617188 -5.332031 4.640625 -5.535156 4.640625 -5.734375 C 4.640625 -6.148438 4.535156 -6.445312 4.328125 -6.625 C 4.117188 -6.800781 3.78125 -6.890625 3.3125 -6.890625 Z M 2.9375 -6.890625 "/></g></g></g><g fill="#000000" fill-opacity="1"><g transform="translate(43.027606, 24.099985)"><g><path d="M -0.15625 -0.671875 L 0.421875 -0.828125 L 2.90625 -7.734375 L 4.40625 -7.734375 L 6.828125 -0.828125 L 7.390625 -0.671875 L 7.28125 0 L 4.453125 0 L 4.34375 -0.671875 L 5.09375 -0.828125 L 4.625 -2.203125 L 2.03125 -2.203125 L 1.546875 -0.828125 L 2.3125 -0.671875 L 2.1875 0 L -0.03125 0 Z M 2.328125 -3.0625 L 4.34375 -3.0625 L 3.390625 -5.859375 L 3.296875 -5.859375 Z M 2.328125 -3.0625 "/></g></g></g><g fill="#000000" fill-opacity="1"><g transform="translate(53.348349, 24.099985)"><g><path d="M 6.265625 -7.734375 L 6.265625 -6.921875 L 2.28125 -0.9375 L 2.3125 -0.859375 L 5.0625 -0.859375 L 5.53125 -1.953125 L 6.421875 -1.828125 L 6.28125 0 L 0.28125 0 L 0.28125 -0.828125 L 4.265625 -6.8125 L 4.234375 -6.890625 L 1.703125 -6.890625 L 1.234375 -5.78125 L 0.359375 -5.90625 L 0.5 -7.734375 Z M 6.265625 -7.734375 "/></g></g></g></g></g><path stroke-linecap="butt" transform="matrix(0.75, 0.000000000000000817, -0.000000000000000817, 0.75, 110.96213, 237.887797)" fill="none" stroke-linejoin="miter" d="M -0.00159002 1.498562 L 104.305708 1.498562 " stroke="#000000" stroke-width="3" stroke-opacity="1" stroke-miterlimit="4"/><path stroke-linecap="butt" transform="matrix(0.75, 0.000000000000000817, -0.000000000000000817, 0.75, 110.96213, 190.966643)" fill="none" stroke-linejoin="miter" d="M -0.00159002 1.4976 L 104.305708 1.4976 " stroke="#000000" stroke-width="3" stroke-opacity="1" stroke-miterlimit="4"/></svg>